HIERARCHY
ROOT RootJoint
{
    OFFSET   0.000000   0.000000   0.000000
    CHANNELS 6 Xposition Yposition Zposition Xrotation Yrotation Zrotation
    JOINT pelvis_lowerback
    {
        OFFSET   0.000000   0.093605   0.000000
        CHANNELS 3 Xrotation Yrotation Zrotation
        JOINT lowerback_torso
        {
            OFFSET   0.000000   0.100000   0.000000
            CHANNELS 3 Xrotation Yrotation Zrotation
            JOINT torso_head
            {
                OFFSET   0.000000   0.282350   0.000000
                CHANNELS 3 Xrotation Yrotation Zrotation
                End Site
                {
                    OFFSET   0.000000   0.192650   0.000000
                }
            }
            JOINT rTorso_Clavicle
            {
                OFFSET  -0.001000   0.157500   0.000000
                CHANNELS 3 Xrotation Yrotation Zrotation
                JOINT rShoulder
                {
                    OFFSET  -0.117647   0.000000   0.000000
                    CHANNELS 3 Xrotation Yrotation Zrotation
                    JOINT rElbow
                    {
                        OFFSET  -0.245000   0.000000   0.000000
                        CHANNELS 3 Xrotation Yrotation Zrotation
                        JOINT rWrist
                        {
                            OFFSET  -0.240000   0.000000   0.000000
                            CHANNELS 3 Xrotation Yrotation Zrotation
                            End Site
                            {
                                OFFSET  -0.116353  -0.002500   0.000000
                            }
                        }
                    }
                }
            }
            JOINT lTorso_Clavicle
            {
                OFFSET   0.001000   0.157500   0.000000
                CHANNELS 3 Xrotation Yrotation Zrotation
                JOINT lShoulder
                {
                    OFFSET   0.117647   0.000000   0.000000
                    CHANNELS 3 Xrotation Yrotation Zrotation
                    JOINT lElbow
                    {
                        OFFSET   0.245000   0.000000   0.000000
                        CHANNELS 3 Xrotation Yrotation Zrotation
                        JOINT lWrist
                        {
                            OFFSET   0.240000   0.000000   0.000000
                            CHANNELS 3 Xrotation Yrotation Zrotation
                            End Site
                            {
                                OFFSET   0.116353  -0.002500   0.000000
                            }
                        }
                    }
                }
            }
        }
    }
    JOINT rHip
    {
        OFFSET  -0.100000  -0.051395   0.000000
        CHANNELS 3 Xrotation Yrotation Zrotation
        JOINT rKnee
        {
            OFFSET   0.000000  -0.410000   0.000000
            CHANNELS 3 Xrotation Yrotation Zrotation
            JOINT rAnkle
            {
                OFFSET   0.000000  -0.390000   0.000000
                CHANNELS 3 Xrotation Yrotation Zrotation
                JOINT rToeJoint
                {
                    OFFSET   0.000000  -0.050000   0.130000
                    CHANNELS 3 Xrotation Yrotation Zrotation
                    End Site
                    {
                        OFFSET  -0.010000   0.002000   0.060000
                    }
                }
            }
        }
    }
    JOINT lHip
    {
        OFFSET   0.100000  -0.051395   0.000000
        CHANNELS 3 Xrotation Yrotation Zrotation
        JOINT lKnee
        {
            OFFSET   0.000000  -0.410000   0.000000
            CHANNELS 3 Xrotation Yrotation Zrotation
            JOINT lAnkle
            {
                OFFSET   0.000000  -0.390000   0.000000
                CHANNELS 3 Xrotation Yrotation Zrotation
                JOINT lToeJoint
                {
                    OFFSET   0.000000  -0.050000   0.130000
                    CHANNELS 3 Xrotation Yrotation Zrotation
                    End Site
                    {
                        OFFSET   0.010000   0.002000   0.060000
                    }
                }
            }
        }
    }
}
MOTION
Frames: 17
Frame Time:   0.008333
 -2.376719   0.925631   3.975860   0.000000   0.000000   0.000000   0.000000   0.000000   0.000000   0.000000   0.000000   0.000000   0.000000   0.000000   0.000000   0.000000   0.000000   0.000000   0.000000   0.000000   0.000000   0.000000   0.000000   0.000000   0.000000   0.000000   0.000000   0.000000   0.000000   0.000000   0.000000   0.000000   0.000000   0.000000   0.000000   0.000000   0.000000   0.000000   0.000000   0.000000   0.000000   0.000000   0.000000   0.000000   0.000000   0.000000   0.000000   0.000000   0.000000   0.000000   0.000000   0.000000   0.000000   0.000000   0.000000   0.000000   0.000000   0.000000   0.000000   0.000000   0.000000   0.000000   0.000000
 -2.376568   0.925474   3.974900  -0.571663  -0.494964   0.265533   0.814690   0.191760  -0.302180   0.091941  -0.011949  -0.180189  -0.212057   0.029191   0.078494   0.125703  -0.264170  -0.093244   1.001458   0.360541   2.297091   0.062778   3.509269  -0.046599   0.179713  -1.884240  -2.195314  -0.183342   0.564338   0.516240  -0.643791   0.263473  -1.417896   0.034032  -3.553690  -0.014374   0.048032   1.618239   1.373305  -0.391318  -0.173601  -0.360181   2.403289   0.001642  -0.014113  -0.993748  -0.548706   0.239647  -0.313957   0.000372   0.003344   0.182221   0.001851  -0.348289   1.579952   0.001002  -0.006805  -1.703037   0.101858   0.443654   0.148213  -0.000462  -0.000501
 -2.376286   0.925239   3.973743  -1.280610  -1.130507   0.513022   1.639359   0.407270  -0.605639   0.305746   0.040249  -0.342754  -0.366542   0.047309   0.109461   0.251557  -0.283804   0.336767   1.940283   1.000988   4.979025   0.151752   7.180466  -0.085480   0.400957  -2.695894  -3.828988  -0.356872   0.978057   0.698369  -1.251781   0.378406  -2.992870   0.076208  -7.240603  -0.024929   0.079108   2.277554   2.354075  -0.766238  -0.370732  -0.779976   4.927739   0.003135  -0.030074  -1.899578  -1.077477   0.451694  -0.564757   0.000385   0.005690   0.510026  -0.017522  -0.733522   3.299294   0.002053  -0.015324  -3.293082   0.182436   0.861399   0.214816  -0.000536  -0.000729
 -2.375875   0.924722   3.972408  -2.006678  -1.711481   0.705268   2.432987   0.598154  -0.858822   0.534235   0.096581  -0.439844  -0.511809   0.060713   0.116724   0.364368  -0.135658   1.126710   2.769616   1.768706   7.764421   0.247207  10.905607  -0.114394   0.626453  -3.026643  -4.812585  -0.514718   1.223561   0.626518  -1.820954   0.391494  -4.643521   0.117575 -10.974990  -0.032771   0.110304   2.535756   2.929704  -1.171496  -0.493751  -1.146676   7.207383   0.002977  -0.038715  -2.811295  -1.493435   0.657220  -1.676543   0.000773   0.015678   0.868421  -0.050743  -1.113155   4.966384   0.002946  -0.021328  -4.774193   0.244025   1.251299   0.282468  -0.000563  -0.000902
 -2.375290   0.923737   3.970996  -2.728407  -2.222790   0.855937   3.193631   0.776659  -1.049671   0.760291   0.152118  -0.471572  -0.654998   0.072385   0.114139   0.462496   0.121865   2.133293   3.494629   2.614425  10.553477   0.334613  14.541206  -0.134166   0.854306  -3.070558  -5.307611  -0.656713   1.344077   0.384768  -2.352318   0.338886  -6.316591   0.153200 -14.739766  -0.038490   0.141472   2.582412   3.191954  -1.611607  -0.625237  -1.493421   9.325123   0.002400  -0.043662  -3.649235  -1.904027   0.836049  -2.499367   0.000537   0.020374   1.246137  -0.086835  -1.498020   6.540574   0.003800  -0.024815  -6.156852   0.291296   1.615160   0.342637  -0.000538  -0.000978
 -2.374615   0.922551   3.969526  -3.420156  -2.551394   0.945625   3.914576   0.904817  -1.157684   0.976906   0.174296  -0.427616  -0.797053   0.081873   0.109760   0.547681   0.437126   3.294114   4.124283   3.496719  13.302740   0.405419  17.957444  -0.146307   1.080621  -2.938775  -5.456961  -0.784519   1.364080   0.014875  -2.847861   0.238344  -7.981667   0.181988 -18.527667  -0.042368   0.173058   2.489789   3.239908  -2.023521  -0.692747  -1.654004  11.320350  -0.000164  -0.042299  -4.638869  -2.190934   0.983298  -2.563913   0.000483   0.016702   1.599821  -0.129761  -1.848432   8.016441   0.004704  -0.024995  -7.446924   0.325844   1.953159   0.404259  -0.000496  -0.000958
 -2.373716   0.921123   3.968031  -4.071647  -2.832924   1.017603   4.597526   1.044125  -1.201830   1.184793   0.204707  -0.329665  -0.936621   0.091945   0.104401   0.620585   0.791432   4.534016   4.668024   4.394146  15.973149   0.458434  21.159271  -0.153155   1.297588  -2.725235  -5.350043  -0.897386   1.331045  -0.431197  -3.307214   0.121308  -9.611962   0.202588 -22.328092  -0.044546   0.202247   2.320642   3.125411  -2.428645  -0.825245  -1.775191  13.214822  -0.002762  -0.040955  -5.595695  -2.543617   1.078427  -2.627406   0.000431   0.013802   1.945034  -0.165522  -2.217862   9.388386   0.005693  -0.024273  -8.651676   0.351826   2.268768   0.460334  -0.000429  -0.000905
 -2.372680   0.919786   3.965951  -4.564715  -3.230939   0.938203   5.342128   1.234712  -1.122908   1.209567   0.244922  -0.078722  -1.113849   0.071293   0.013586   0.701907   1.085500   5.534961   5.143282   5.399234  18.361404   0.500922  24.554609  -0.161661   1.448667  -2.576606  -4.631669  -0.932721   1.297879  -0.735437  -4.148732   0.120155 -11.515723   0.213773 -26.114486  -0.056551   0.140004   2.136619   2.984941  -3.201903  -1.055341  -1.740360  15.305531  -0.006293  -0.044320  -6.170573  -2.866202   1.147761  -2.596630   0.000322   0.010777   2.216421  -0.029600  -2.419525  10.543546   0.006030  -0.022564  -9.916144   0.365141   2.702880   0.561056  -0.000520  -0.000932
 -2.371502   0.918422   3.963689  -5.012387  -3.598248   0.853125   6.077245   1.399038  -1.033951   1.244251   0.280636   0.182949  -1.282317   0.048606  -0.054742   0.758941   1.404634   6.415988   5.539214   6.395956  20.549527   0.521107  27.751746  -0.166423   1.609167  -2.260948  -3.903420  -0.962456   1.233859  -1.015923  -4.931776   0.125331 -13.301837   0.217266 -29.904507  -0.062984   0.064618   1.956115   2.810683  -4.013473  -1.297572  -1.722208  17.331136  -0.009074  -0.046205  -6.582254  -3.186328   1.232611  -2.559313   0.000227   0.008307   2.501237   0.097402  -2.612546  11.600100   0.006154  -0.020763 -11.099627   0.369556   3.108521   0.640949  -0.000539  -0.000900
 -2.370209   0.916950   3.961342  -5.414755  -3.908733   0.780059   6.784433   1.536474  -0.950832   1.291086   0.302323   0.433677  -1.437255   0.026776  -0.110630   0.799298   1.725894   7.203833   5.869664   7.357309  22.565332   0.524361  30.745250  -0.167963   1.767612  -1.893119  -3.240147  -0.990691   1.142131  -1.257113  -5.662762   0.129518 -14.956937   0.214812 -33.701128  -0.065788  -0.006097   1.755776   2.650598  -4.817282  -1.524108  -1.737576  19.242267  -0.010807  -0.045871  -6.916838  -3.487720   1.321680  -3.179711   0.000534   0.011406   2.791839   0.214105  -2.807390  12.587524   0.006164  -0.018759 -12.204873   0.365691   3.486406   0.711181  -0.000527  -0.000833
 -2.368822   0.915354   3.958955  -5.771162  -4.170751   0.713231   7.458574   1.648491  -0.871189   1.342733   0.305970   0.672469  -1.579412   0.006900  -0.160053   0.826110   2.040223   7.911906   6.144403   8.275001  24.426278   0.515257  33.544706  -0.166639   1.919945  -1.511484  -2.645143  -1.022536   1.022699  -1.456887  -6.349866   0.124101 -16.486212   0.206765 -37.353456  -0.065629  -0.067756   1.470145   2.522383  -5.608702  -1.733821  -1.774727  21.036777  -0.011689  -0.044049  -7.203161  -3.770810   1.408695  -3.776416   0.000635   0.013283   3.087406   0.322601  -2.993777  13.513104   0.006068  -0.016697 -13.236606   0.355496   3.838461   0.774557  -0.000501  -0.000751
 -2.367349   0.913640   3.956556  -6.083104  -4.398692   0.648441   8.098006   1.736803  -0.793824   1.395071   0.292006   0.900523  -1.710201  -0.011080  -0.205005   0.842165   2.341432   8.549316   6.371988   9.144612  26.146443   0.497324  36.161014  -0.162814   2.064983  -1.130194  -2.112160  -1.059501   0.882884  -1.617177  -6.997622   0.111837 -17.897271   0.194587 -40.775492  -0.063089  -0.121346   1.112128   2.432188  -6.387183  -1.926854  -1.825361  22.718743  -0.011940  -0.041414  -7.457723  -4.035566   1.490943  -4.329718   0.000596   0.014158   3.388781   0.423386  -3.166888  14.381565   0.005881  -0.014734 -14.199489   0.340415   4.166552   0.832590  -0.000467  -0.000667
 -2.365789   0.911823   3.954160  -6.353675  -4.604550   0.582860   8.703271   1.804960  -0.718285   1.447050   0.264115   1.118406  -1.830907  -0.027587  -0.245977   0.850956   2.623438   9.123066   6.560565   9.962441  27.737713   0.473285  38.604417  -0.156954   2.202299  -0.758686  -1.635310  -1.100195   0.734886  -1.742296  -7.607536   0.100979 -19.198194   0.180330 -43.975838  -0.058848  -0.169467   0.730258   2.381450  -7.152598  -2.104360  -1.884056  24.293931  -0.011746  -0.038437  -7.689732  -4.282834   1.567266  -4.830590   0.000478   0.014286   3.696259   0.516529  -3.325104  15.197412   0.005622  -0.012962 -15.097953   0.321534   4.472367   0.886237  -0.000430  -0.000592
 -2.364166   0.911258   3.951802  -6.772248  -4.727262   0.656697   9.394680   1.766877  -0.747866   1.657426   0.316532   1.322682  -1.888341  -0.055128  -0.311625   0.820907   2.944545   9.525312   6.640793  10.764025  29.063974   0.444032  40.951697  -0.152937   2.277265  -0.618307  -0.782680  -1.149736   0.473544  -1.911306  -8.175556   0.068672 -20.576072   0.174718 -47.041116  -0.049474  -0.253952   0.472717   2.473672  -7.884883  -2.388408  -2.207510  26.243919  -0.011083  -0.038732  -8.062031  -4.624500   1.591556  -4.532547   0.000754   0.009252   3.778439   0.739621  -3.530283  15.651323   0.004852  -0.010161 -15.369868   0.493425   4.584854   1.124417  -0.000378   0.000098
 -2.362831   0.910906   3.949799  -7.206446  -4.763120   0.578591  10.030562   1.715941  -0.639317   1.883232   0.357893   1.537825  -1.915396  -0.079825  -0.355511   0.759731   3.261261   9.745327   6.682213  11.523271  30.211748   0.409023  43.158528  -0.147173   2.351354  -0.437499  -0.003145  -1.190806   0.192172  -2.067663  -8.700065   0.019518 -21.891029   0.167775 -49.922401  -0.041150  -0.335882   0.161548   2.457898  -8.557423  -2.668848  -2.430232  28.153415  -0.009502  -0.037484  -8.407218  -4.946701   1.611090  -4.264450   0.001030   0.005704   3.882678   0.985827  -3.531284  16.124434   0.004199  -0.007459 -15.593732   0.683759   4.645589   1.323752  -0.000314   0.000752
 -2.361805   0.910690   3.948140  -7.623735  -4.739745   0.438019  10.608526   1.661052  -0.514157   2.080879   0.389070   1.743812  -1.935907  -0.102591  -0.382722   0.679269   3.562118   9.864703   6.694588  12.231573  31.224736   0.371311  45.224478  -0.139796   2.425833  -0.228822   0.630465  -1.233384  -0.087370  -2.195805  -9.193094  -0.029387 -23.112275   0.158409 -52.619161  -0.035649  -0.412388  -0.177751   2.415829  -9.193414  -2.929679  -2.642844  29.956955  -0.007149  -0.035329  -8.729110  -5.247388   1.627126  -4.023276   0.001302   0.003224   4.005403   1.213367  -3.434735  16.562232   0.003611  -0.005176 -15.810196   0.861131   4.704893   1.512510  -0.000300   0.001280
 -2.361099   0.910574   3.946805  -8.019344  -4.670361   0.258402  11.131107   1.606588  -0.399936   2.246093   0.414466   1.926454  -1.955003  -0.123764  -0.402715   0.588304   3.843761   9.916998   6.686168  12.889424  32.130129   0.333191  47.155915  -0.131555   2.498907  -0.010138   1.137830  -1.278339  -0.354750  -2.294270  -9.657723  -0.071434 -24.240029   0.147039 -55.139853  -0.032930  -0.484204  -0.523521   2.384611  -9.797595  -3.168717  -2.864404  31.643250  -0.004350  -0.032755  -9.029717  -5.528236   1.639962  -3.804467   0.001560   0.001502   4.141097   1.419829  -3.267184  16.964157   0.003076  -0.003308 -16.019168   1.024196   4.765036   1.685823  -0.000319   0.001662
